<svg width="640" height="180" viewBox="0 0 640 180" fill="none" xmlns="http://www.w3.org/2000/svg">
<path d="M533.211 60.9517C535.028 60.6406 536.248 58.929 535.934 57.1291C534.155 46.9166 542.105 37.6172 552.501 37.6172C562.865 37.6172 570.829 46.8725 569.076 57.0872C568.766 58.8893 569.991 60.5965 571.808 60.9031C573.628 61.2097 575.352 59.9966 575.661 58.1967C578.104 43.9807 567.025 31 552.501 31C537.992 31 526.861 43.9785 529.349 58.2518C529.663 60.0583 531.398 61.2605 533.211 60.9517Z" fill="#00978C"/>
<path d="M587.623 83.8326C585.133 78.9391 579.199 76.9857 574.328 79.398C572.064 74.9502 566.885 72.8483 562.179 74.4846V54.1169C562.179 48.6891 557.818 44.1526 552.458 44.004C546.843 43.8466 542.187 48.3476 542.187 53.9794V105.216L538.283 101.125C534.536 97.1982 528.26 96.9232 524.292 100.511C520.106 104.296 519.897 110.743 523.751 114.794L546.193 138.745C549.322 142.084 553.743 144 558.316 144H585.381C594.546 144 602 136.541 602 127.371V92.7814C602.002 85.4135 594.236 80.5599 587.623 83.8326ZM595.355 127.371C595.355 132.872 590.881 137.348 585.383 137.348H558.319C555.573 137.348 552.921 136.2 551.044 134.195C550.962 134.109 528.652 110.298 528.57 110.213C527.285 108.865 527.347 106.715 528.748 105.446C530.068 104.251 532.189 104.375 533.472 105.719L543.104 115.812C545.17 117.978 548.832 116.508 548.832 113.515V53.9794C548.832 52.1103 550.381 50.6026 552.276 50.6536C554.071 50.7023 555.529 52.2566 555.529 54.1169C555.529 90.7127 555.467 74.1254 555.467 93.89C555.467 95.7326 556.967 97.2336 558.822 97.2137C560.674 97.2336 562.176 95.7326 562.176 93.89V83.2805C562.473 81.7483 563.821 80.5865 565.438 80.5865C567.271 80.5865 568.762 82.0787 568.762 83.9124V93.89C568.762 95.7281 570.249 97.2159 572.086 97.2159C573.923 97.2159 575.41 95.7281 575.41 93.89V88.3469C575.41 86.5132 576.901 85.021 578.733 85.021C580.566 85.021 582.057 86.5132 582.057 88.3469V93.89C582.057 95.7281 583.544 97.2159 585.381 97.2159C587.218 97.2159 588.705 95.7281 588.705 93.89V92.7814C588.705 90.9477 590.196 89.4555 592.029 89.4555C593.861 89.4555 595.352 90.9477 595.352 92.7814V127.371H595.355Z" fill="#00978C"/>
<path d="M169.843 77.9582C169.843 75.9803 170.271 74.2211 171.127 72.6806C171.983 71.1211 173.171 69.9134 174.693 69.0576C176.233 68.1827 177.973 67.7453 179.913 67.7453C182.291 67.7453 184.326 68.3729 186.018 69.6281C187.711 70.8834 188.842 72.595 189.413 74.7631H184.05C183.65 73.9263 183.08 73.2892 182.338 72.8518C181.615 72.4144 180.788 72.1956 179.856 72.1956C178.354 72.1956 177.137 72.7186 176.205 73.7647C175.273 74.8107 174.807 76.2085 174.807 77.9582C174.807 79.7079 175.273 81.1058 176.205 82.1518C177.137 83.1978 178.354 83.7208 179.856 83.7208C180.788 83.7208 181.615 83.5021 182.338 83.0647C183.08 82.6273 183.65 81.9902 184.05 81.1533H189.413C188.842 83.3215 187.711 85.0331 186.018 86.2883C184.326 87.5245 182.291 88.1426 179.913 88.1426C177.973 88.1426 176.233 87.7147 174.693 86.8589C173.171 85.984 171.983 84.7764 171.127 83.2359C170.271 81.6954 169.843 79.9362 169.843 77.9582ZM200.131 66.8895V88H195.253V66.8895H200.131ZM208.973 70.4269C208.117 70.4269 207.413 70.1797 206.862 69.6852C206.329 69.1717 206.063 68.5441 206.063 67.8024C206.063 67.0416 206.329 66.414 206.862 65.9195C207.413 65.406 208.117 65.1493 208.973 65.1493C209.81 65.1493 210.494 65.406 211.027 65.9195C211.578 66.414 211.854 67.0416 211.854 67.8024C211.854 68.5441 211.578 69.1717 211.027 69.6852C210.494 70.1797 209.81 70.4269 208.973 70.4269ZM211.398 72.0815V88H206.519V72.0815H211.398ZM216.816 80.0693C216.816 78.4908 217.139 77.0834 217.786 75.8472C218.451 74.611 219.336 73.6506 220.439 72.9659C221.561 72.2622 222.778 71.9104 224.09 71.9104C225.098 71.9104 226.002 72.091 226.8 72.4524C227.599 72.7947 228.246 73.2797 228.74 73.9073V72.0815H233.618V95.5884H228.74V86.0031C228.189 86.6687 227.514 87.2012 226.715 87.6006C225.935 88 225.041 88.1997 224.033 88.1997C222.74 88.1997 221.542 87.8574 220.439 87.1727C219.336 86.488 218.451 85.5276 217.786 84.2914C217.139 83.0552 216.816 81.6478 216.816 80.0693ZM228.74 80.0408C228.74 79.1849 228.569 78.4717 228.227 77.9012C227.903 77.3116 227.475 76.8742 226.943 76.5889C226.41 76.2846 225.849 76.1325 225.26 76.1325C224.689 76.1325 224.138 76.2846 223.605 76.5889C223.073 76.8742 222.635 77.3116 222.293 77.9012C221.951 78.4908 221.779 79.2135 221.779 80.0693C221.779 80.9251 221.951 81.6478 222.293 82.2374C222.635 82.808 223.073 83.2454 223.605 83.5497C224.138 83.835 224.689 83.9776 225.26 83.9776C225.83 83.9776 226.382 83.835 226.914 83.5497C227.466 83.2454 227.903 82.7984 228.227 82.2089C228.569 81.6193 228.74 80.8966 228.74 80.0408ZM255.719 72.0815V88H250.841V85.8319C250.346 86.5356 249.671 87.1061 248.815 87.5436C247.979 87.962 247.047 88.1712 246.02 88.1712C244.803 88.1712 243.728 87.9049 242.796 87.3724C241.864 86.8209 241.142 86.0316 240.628 85.0046C240.115 83.9776 239.858 82.7699 239.858 81.3816V72.0815H244.707V80.7254C244.707 81.7905 244.983 82.6178 245.535 83.2073C246.086 83.7969 246.828 84.0917 247.76 84.0917C248.711 84.0917 249.462 83.7969 250.014 83.2073C250.565 82.6178 250.841 81.7905 250.841 80.7254V72.0815H255.719ZM277.082 79.784C277.082 80.2405 277.053 80.7159 276.996 81.2104H265.956C266.032 82.1994 266.346 82.9601 266.897 83.4926C267.468 84.0061 268.162 84.2629 268.98 84.2629C270.197 84.2629 271.043 83.7494 271.519 82.7224H276.711C276.444 83.7684 275.959 84.7098 275.256 85.5466C274.571 86.3834 273.706 87.0396 272.66 87.515C271.614 87.9905 270.444 88.2282 269.151 88.2282C267.591 88.2282 266.203 87.8954 264.986 87.2298C263.769 86.5641 262.818 85.6132 262.133 84.377C261.448 83.1408 261.106 81.6954 261.106 80.0408C261.106 78.3862 261.439 76.9408 262.104 75.7045C262.789 74.4683 263.74 73.5174 264.957 72.8518C266.174 72.1861 267.572 71.8533 269.151 71.8533C270.691 71.8533 272.061 72.1766 273.259 72.8233C274.457 73.4699 275.389 74.3923 276.055 75.5904C276.739 76.7886 277.082 78.1865 277.082 79.784ZM272.089 78.5003C272.089 77.6635 271.804 76.9978 271.233 76.5033C270.663 76.0088 269.95 75.7616 269.094 75.7616C268.276 75.7616 267.582 75.9993 267.011 76.4748C266.46 76.9503 266.117 77.6254 265.984 78.5003H272.089ZM301.105 71.9104C302.969 71.9104 304.453 72.519 305.556 73.7361C306.678 74.9343 307.239 76.5889 307.239 78.7V88H302.389V79.3561C302.389 78.2911 302.113 77.4638 301.562 76.8742C301.01 76.2846 300.269 75.9898 299.337 75.9898C298.405 75.9898 297.663 76.2846 297.112 76.8742C296.56 77.4638 296.284 78.2911 296.284 79.3561V88H291.406V72.0815H296.284V74.1926C296.779 73.4889 297.444 72.9374 298.281 72.538C299.118 72.1196 300.059 71.9104 301.105 71.9104ZM320.728 88.2282C319.168 88.2282 317.761 87.8954 316.506 87.2298C315.269 86.5641 314.29 85.6132 313.567 84.377C312.863 83.1408 312.512 81.6954 312.512 80.0408C312.512 78.4052 312.873 76.9693 313.596 75.7331C314.318 74.4779 315.307 73.5174 316.563 72.8518C317.818 72.1861 319.225 71.8533 320.785 71.8533C322.344 71.8533 323.752 72.1861 325.007 72.8518C326.262 73.5174 327.251 74.4779 327.974 75.7331C328.696 76.9693 329.058 78.4052 329.058 80.0408C329.058 81.6764 328.687 83.1218 327.945 84.377C327.222 85.6132 326.224 86.5641 324.95 87.2298C323.695 87.8954 322.287 88.2282 320.728 88.2282ZM320.728 84.0061C321.66 84.0061 322.449 83.6638 323.095 82.9791C323.761 82.2945 324.094 81.315 324.094 80.0408C324.094 78.7665 323.771 77.7871 323.124 77.1024C322.496 76.4177 321.717 76.0754 320.785 76.0754C319.834 76.0754 319.045 76.4177 318.417 77.1024C317.789 77.7681 317.475 78.7475 317.475 80.0408C317.475 81.315 317.78 82.2945 318.388 82.9791C319.016 83.6638 319.796 84.0061 320.728 84.0061ZM340.974 88.2282C339.586 88.2282 338.35 87.9905 337.266 87.515C336.182 87.0396 335.326 86.3929 334.698 85.5751C334.071 84.7383 333.719 83.8064 333.643 82.7794H338.464C338.521 83.331 338.778 83.7779 339.234 84.1202C339.691 84.4626 340.252 84.6337 340.917 84.6337C341.526 84.6337 341.992 84.5196 342.315 84.2914C342.657 84.0442 342.829 83.7304 342.829 83.35C342.829 82.8935 342.591 82.5607 342.115 82.3515C341.64 82.1233 340.87 81.876 339.805 81.6098C338.664 81.3435 337.713 81.0678 336.952 80.7825C336.191 80.4782 335.535 80.0122 334.983 79.3846C334.432 78.738 334.156 77.8727 334.156 76.7886C334.156 75.8757 334.403 75.0484 334.898 74.3067C335.411 73.546 336.153 72.9469 337.123 72.5094C338.112 72.072 339.282 71.8533 340.632 71.8533C342.629 71.8533 344.198 72.3478 345.339 73.3367C346.499 74.3257 347.165 75.638 347.336 77.2736H342.829C342.753 76.722 342.505 76.2846 342.087 75.9613C341.687 75.638 341.155 75.4763 340.489 75.4763C339.919 75.4763 339.481 75.5904 339.177 75.8187C338.873 76.0279 338.721 76.3227 338.721 76.703C338.721 77.1595 338.958 77.5018 339.434 77.73C339.928 77.9582 340.689 78.1865 341.716 78.4147C342.895 78.719 343.856 79.0233 344.597 79.3276C345.339 79.6128 345.986 80.0883 346.537 80.754C347.108 81.4006 347.403 82.2754 347.422 83.3785C347.422 84.3104 347.155 85.1472 346.623 85.8889C346.109 86.6117 345.358 87.1822 344.369 87.6006C343.399 88.019 342.268 88.2282 340.974 88.2282ZM369.403 88.2282C367.844 88.2282 366.436 87.8954 365.181 87.2298C363.945 86.5641 362.965 85.6132 362.243 84.377C361.539 83.1408 361.187 81.6954 361.187 80.0408C361.187 78.4052 361.548 76.9693 362.271 75.7331C362.994 74.4779 363.983 73.5174 365.238 72.8518C366.493 72.1861 367.901 71.8533 369.46 71.8533C371.02 71.8533 372.427 72.1861 373.682 72.8518C374.937 73.5174 375.926 74.4779 376.649 75.7331C377.372 76.9693 377.733 78.4052 377.733 80.0408C377.733 81.6764 377.362 83.1218 376.621 84.377C375.898 85.6132 374.899 86.5641 373.625 87.2298C372.37 87.8954 370.963 88.2282 369.403 88.2282ZM369.403 84.0061C370.335 84.0061 371.124 83.6638 371.771 82.9791C372.437 82.2945 372.769 81.315 372.769 80.0408C372.769 78.7665 372.446 77.7871 371.799 77.1024C371.172 76.4177 370.392 76.0754 369.46 76.0754C368.509 76.0754 367.72 76.4177 367.092 77.1024C366.465 77.7681 366.151 78.7475 366.151 80.0408C366.151 81.315 366.455 82.2945 367.064 82.9791C367.691 83.6638 368.471 84.0061 369.403 84.0061ZM388.052 74.3352C388.528 73.5935 389.184 72.9944 390.021 72.538C390.857 72.0815 391.837 71.8533 392.959 71.8533C394.271 71.8533 395.46 72.1861 396.525 72.8518C397.59 73.5174 398.427 74.4683 399.035 75.7045C399.663 76.9408 399.977 78.3766 399.977 80.0122C399.977 81.6478 399.663 83.0932 399.035 84.3485C398.427 85.5847 397.59 86.5451 396.525 87.2298C395.46 87.8954 394.271 88.2282 392.959 88.2282C391.856 88.2282 390.876 88 390.021 87.5436C389.184 87.0871 388.528 86.4975 388.052 85.7748V95.5884H383.174V72.0815H388.052V74.3352ZM395.013 80.0122C395.013 78.7951 394.671 77.8441 393.986 77.1595C393.32 76.4558 392.493 76.1039 391.504 76.1039C390.534 76.1039 389.707 76.4558 389.022 77.1595C388.356 77.8631 388.024 78.8236 388.024 80.0408C388.024 81.2579 388.356 82.2184 389.022 82.9221C389.707 83.6257 390.534 83.9776 391.504 83.9776C392.474 83.9776 393.301 83.6257 393.986 82.9221C394.671 82.1994 395.013 81.2294 395.013 80.0122ZM412.321 84.0632C413.576 84.0632 414.423 83.4546 414.86 82.2374H420.052C419.691 83.854 418.968 85.1758 417.884 86.2028C416.8 87.2298 415.45 87.8669 413.833 88.1141V89.1696C414.822 89.1696 415.687 89.4359 416.429 89.9684C417.171 90.5199 417.542 91.3377 417.542 92.4218C417.542 93.5059 417.152 94.3236 416.372 94.8752C415.592 95.4457 414.66 95.731 413.576 95.731H409.183V93.0494H412.92C413.3 93.0494 413.586 92.9924 413.776 92.8782C413.966 92.7641 414.061 92.5739 414.061 92.3077C414.061 92.0414 413.966 91.8512 413.776 91.7371C413.586 91.642 413.3 91.5945 412.92 91.5945H410.895V88.1141C408.936 87.8098 407.367 86.9445 406.188 85.5181C405.008 84.0727 404.419 82.2469 404.419 80.0408C404.419 78.3862 404.752 76.9408 405.417 75.7045C406.102 74.4683 407.043 73.5174 408.242 72.8518C409.459 72.1861 410.847 71.8533 412.407 71.8533C414.404 71.8533 416.068 72.3763 417.399 73.4223C418.749 74.4683 419.634 75.9423 420.052 77.8441H414.86C414.423 76.6269 413.576 76.0184 412.321 76.0184C411.427 76.0184 410.714 76.3702 410.181 77.0739C409.649 77.7585 409.383 78.7475 409.383 80.0408C409.383 81.334 409.649 82.3325 410.181 83.0362C410.714 83.7208 411.427 84.0632 412.321 84.0632ZM432.76 88.2282C431.201 88.2282 429.793 87.8954 428.538 87.2298C427.302 86.5641 426.322 85.6132 425.6 84.377C424.896 83.1408 424.544 81.6954 424.544 80.0408C424.544 78.4052 424.906 76.9693 425.628 75.7331C426.351 74.4779 427.34 73.5174 428.595 72.8518C429.85 72.1861 431.258 71.8533 432.817 71.8533C434.377 71.8533 435.784 72.1861 437.039 72.8518C438.295 73.5174 439.284 74.4779 440.006 75.7331C440.729 76.9693 441.09 78.4052 441.09 80.0408C441.09 81.6764 440.719 83.1218 439.978 84.377C439.255 85.6132 438.257 86.5641 436.982 87.2298C435.727 87.8954 434.32 88.2282 432.76 88.2282ZM432.76 84.0061C433.692 84.0061 434.481 83.6638 435.128 82.9791C435.794 82.2945 436.127 81.315 436.127 80.0408C436.127 78.7665 435.803 77.7871 435.157 77.1024C434.529 76.4177 433.749 76.0754 432.817 76.0754C431.866 76.0754 431.077 76.4177 430.449 77.1024C429.822 77.7681 429.508 78.7475 429.508 80.0408C429.508 81.315 429.812 82.2945 430.421 82.9791C431.049 83.6638 431.828 84.0061 432.76 84.0061ZM427.483 70.6266C427.939 67.8119 429.251 66.4045 431.419 66.4045C431.838 66.4045 432.199 66.4711 432.503 66.6042C432.827 66.7183 433.217 66.899 433.673 67.1462C434.015 67.3364 434.291 67.4791 434.5 67.5741C434.71 67.6502 434.928 67.6883 435.157 67.6883C435.86 67.6883 436.269 67.2603 436.383 66.4045H438.894C438.437 69.2192 437.125 70.6266 434.957 70.6266C434.538 70.6266 434.168 70.5696 433.844 70.4554C433.54 70.3223 433.16 70.1321 432.703 69.8849C432.361 69.6947 432.085 69.5616 431.876 69.4855C431.667 69.3904 431.448 69.3429 431.22 69.3429C430.516 69.3429 430.098 69.7708 429.965 70.6266H427.483ZM461.537 79.784C461.537 80.2405 461.508 80.7159 461.451 81.2104H450.411C450.487 82.1994 450.801 82.9601 451.352 83.4926C451.923 84.0061 452.617 84.2629 453.435 84.2629C454.652 84.2629 455.498 83.7494 455.974 82.7224H461.166C460.9 83.7684 460.415 84.7098 459.711 85.5466C459.026 86.3834 458.161 87.0396 457.115 87.515C456.069 87.9905 454.899 88.2282 453.606 88.2282C452.046 88.2282 450.658 87.8954 449.441 87.2298C448.224 86.5641 447.273 85.6132 446.588 84.377C445.903 83.1408 445.561 81.6954 445.561 80.0408C445.561 78.3862 445.894 76.9408 446.56 75.7045C447.244 74.4683 448.195 73.5174 449.412 72.8518C450.63 72.1861 452.027 71.8533 453.606 71.8533C455.146 71.8533 456.516 72.1766 457.714 72.8233C458.912 73.4699 459.844 74.3923 460.51 75.5904C461.194 76.7886 461.537 78.1865 461.537 79.784ZM456.544 78.5003C456.544 77.6635 456.259 76.9978 455.689 76.5033C455.118 76.0088 454.405 75.7616 453.549 75.7616C452.731 75.7616 452.037 75.9993 451.466 76.4748C450.915 76.9503 450.573 77.6254 450.439 78.5003H456.544ZM473.439 88.2282C472.05 88.2282 470.814 87.9905 469.73 87.515C468.646 87.0396 467.79 86.3929 467.163 85.5751C466.535 84.7383 466.183 83.8064 466.107 82.7794H470.928C470.985 83.331 471.242 83.7779 471.699 84.1202C472.155 84.4626 472.716 84.6337 473.382 84.6337C473.99 84.6337 474.456 84.5196 474.78 84.2914C475.122 84.0442 475.293 83.7304 475.293 83.35C475.293 82.8935 475.055 82.5607 474.58 82.3515C474.104 82.1233 473.334 81.876 472.269 81.6098C471.128 81.3435 470.177 81.0678 469.416 80.7825C468.656 80.4782 468 80.0122 467.448 79.3846C466.896 78.738 466.621 77.8727 466.621 76.7886C466.621 75.8757 466.868 75.0484 467.362 74.3067C467.876 73.546 468.618 72.9469 469.588 72.5094C470.577 72.072 471.746 71.8533 473.096 71.8533C475.093 71.8533 476.662 72.3478 477.804 73.3367C478.964 74.3257 479.629 75.638 479.8 77.2736H475.293C475.217 76.722 474.97 76.2846 474.551 75.9613C474.152 75.638 473.619 75.4763 472.954 75.4763C472.383 75.4763 471.946 75.5904 471.642 75.8187C471.337 76.0279 471.185 76.3227 471.185 76.703C471.185 77.1595 471.423 77.5018 471.898 77.73C472.393 77.9582 473.154 78.1865 474.181 78.4147C475.36 78.719 476.32 79.0233 477.062 79.3276C477.804 79.6128 478.45 80.0883 479.002 80.754C479.572 81.4006 479.867 82.2754 479.886 83.3785C479.886 84.3104 479.62 85.1472 479.087 85.8889C478.574 86.6117 477.823 87.1822 476.834 87.6006C475.864 88.019 474.732 88.2282 473.439 88.2282ZM113.988 114.069C113.988 112.491 114.311 111.083 114.958 109.847C115.623 108.611 116.508 107.651 117.611 106.966C118.733 106.262 119.95 105.91 121.262 105.91C122.27 105.91 123.174 106.091 123.972 106.452C124.771 106.795 125.418 107.28 125.912 107.907V106.082H130.79V129.588H125.912V120.003C125.361 120.669 124.686 121.201 123.887 121.601C123.107 122 122.213 122.2 121.205 122.2C119.912 122.2 118.714 121.857 117.611 121.173C116.508 120.488 115.623 119.528 114.958 118.291C114.311 117.055 113.988 115.648 113.988 114.069ZM125.912 114.041C125.912 113.185 125.741 112.472 125.399 111.901C125.075 111.312 124.648 110.874 124.115 110.589C123.582 110.285 123.021 110.132 122.432 110.132C121.861 110.132 121.31 110.285 120.777 110.589C120.245 110.874 119.807 111.312 119.465 111.901C119.123 112.491 118.951 113.213 118.951 114.069C118.951 114.925 119.123 115.648 119.465 116.237C119.807 116.808 120.245 117.245 120.777 117.55C121.31 117.835 121.861 117.978 122.432 117.978C123.002 117.978 123.554 117.835 124.086 117.55C124.638 117.245 125.075 116.798 125.399 116.209C125.741 115.619 125.912 114.897 125.912 114.041ZM152.891 106.082V122H148.013V119.832C147.518 120.536 146.843 121.106 145.988 121.544C145.151 121.962 144.219 122.171 143.192 122.171C141.975 122.171 140.9 121.905 139.968 121.372C139.036 120.821 138.314 120.032 137.8 119.005C137.287 117.978 137.03 116.77 137.03 115.382V106.082H141.88V114.725C141.88 115.79 142.155 116.618 142.707 117.207C143.258 117.797 144 118.092 144.932 118.092C145.883 118.092 146.634 117.797 147.186 117.207C147.737 116.618 148.013 115.79 148.013 114.725V106.082H152.891ZM174.254 113.784C174.254 114.24 174.225 114.716 174.168 115.21H163.128C163.204 116.199 163.518 116.96 164.069 117.493C164.64 118.006 165.334 118.263 166.152 118.263C167.369 118.263 168.215 117.749 168.691 116.722H173.883C173.616 117.768 173.131 118.71 172.428 119.547C171.743 120.383 170.878 121.04 169.832 121.515C168.786 121.99 167.616 122.228 166.323 122.228C164.763 122.228 163.375 121.895 162.158 121.23C160.941 120.564 159.99 119.613 159.305 118.377C158.62 117.141 158.278 115.695 158.278 114.041C158.278 112.386 158.611 110.941 159.277 109.705C159.961 108.468 160.912 107.517 162.129 106.852C163.346 106.186 164.744 105.853 166.323 105.853C167.863 105.853 169.233 106.177 170.431 106.823C171.629 107.47 172.561 108.392 173.227 109.59C173.911 110.789 174.254 112.186 174.254 113.784ZM169.261 112.5C169.261 111.663 168.976 110.998 168.405 110.503C167.835 110.009 167.122 109.762 166.266 109.762C165.448 109.762 164.754 109.999 164.183 110.475C163.632 110.95 163.289 111.625 163.156 112.5H169.261ZM187.608 114.012C187.608 112.377 187.912 110.941 188.521 109.705C189.149 108.468 189.995 107.517 191.06 106.852C192.125 106.186 193.314 105.853 194.626 105.853C195.672 105.853 196.623 106.072 197.479 106.509C198.354 106.947 199.038 107.536 199.533 108.278V100.889H204.411V122H199.533V119.718C199.076 120.479 198.42 121.087 197.564 121.544C196.727 122 195.748 122.228 194.626 122.228C193.314 122.228 192.125 121.895 191.06 121.23C189.995 120.545 189.149 119.585 188.521 118.348C187.912 117.093 187.608 115.648 187.608 114.012ZM199.533 114.041C199.533 112.824 199.19 111.863 198.506 111.159C197.84 110.456 197.022 110.104 196.052 110.104C195.082 110.104 194.255 110.456 193.57 111.159C192.905 111.844 192.572 112.795 192.572 114.012C192.572 115.229 192.905 116.199 193.57 116.922C194.255 117.626 195.082 117.978 196.052 117.978C197.022 117.978 197.84 117.626 198.506 116.922C199.19 116.218 199.533 115.258 199.533 114.041ZM225.799 113.784C225.799 114.24 225.77 114.716 225.713 115.21H214.673C214.749 116.199 215.063 116.96 215.614 117.493C216.185 118.006 216.879 118.263 217.697 118.263C218.914 118.263 219.76 117.749 220.236 116.722H225.428C225.161 117.768 224.676 118.71 223.973 119.547C223.288 120.383 222.423 121.04 221.377 121.515C220.331 121.99 219.161 122.228 217.868 122.228C216.308 122.228 214.92 121.895 213.703 121.23C212.486 120.564 211.535 119.613 210.85 118.377C210.165 117.141 209.823 115.695 209.823 114.041C209.823 112.386 210.156 110.941 210.821 109.705C211.506 108.468 212.457 107.517 213.674 106.852C214.891 106.186 216.289 105.853 217.868 105.853C219.408 105.853 220.778 106.177 221.976 106.823C223.174 107.47 224.106 108.392 224.772 109.59C225.456 110.789 225.799 112.186 225.799 113.784ZM220.806 112.5C220.806 111.663 220.521 110.998 219.95 110.503C219.38 110.009 218.667 109.762 217.811 109.762C216.993 109.762 216.299 109.999 215.728 110.475C215.177 110.95 214.834 111.625 214.701 112.5H220.806ZM237.701 122.228C236.312 122.228 235.076 121.99 233.992 121.515C232.908 121.04 232.052 120.393 231.424 119.575C230.797 118.738 230.445 117.806 230.369 116.779H235.19C235.247 117.331 235.504 117.778 235.96 118.12C236.417 118.463 236.978 118.634 237.644 118.634C238.252 118.634 238.718 118.52 239.041 118.291C239.384 118.044 239.555 117.73 239.555 117.35C239.555 116.894 239.317 116.561 238.842 116.352C238.366 116.123 237.596 115.876 236.531 115.61C235.39 115.344 234.439 115.068 233.678 114.782C232.917 114.478 232.261 114.012 231.71 113.385C231.158 112.738 230.882 111.873 230.882 110.789C230.882 109.876 231.13 109.048 231.624 108.307C232.138 107.546 232.879 106.947 233.849 106.509C234.838 106.072 236.008 105.853 237.358 105.853C239.355 105.853 240.924 106.348 242.065 107.337C243.225 108.326 243.891 109.638 244.062 111.274H239.555C239.479 110.722 239.232 110.285 238.813 109.961C238.414 109.638 237.881 109.476 237.216 109.476C236.645 109.476 236.208 109.59 235.903 109.819C235.599 110.028 235.447 110.323 235.447 110.703C235.447 111.159 235.685 111.502 236.16 111.73C236.655 111.958 237.415 112.186 238.442 112.415C239.621 112.719 240.582 113.023 241.324 113.328C242.065 113.613 242.712 114.088 243.263 114.754C243.834 115.401 244.129 116.275 244.148 117.379C244.148 118.31 243.882 119.147 243.349 119.889C242.836 120.612 242.084 121.182 241.095 121.601C240.125 122.019 238.994 122.228 237.701 122.228ZM264.991 113.784C264.991 114.24 264.962 114.716 264.905 115.21H253.865C253.941 116.199 254.255 116.96 254.806 117.493C255.377 118.006 256.071 118.263 256.889 118.263C258.106 118.263 258.952 117.749 259.428 116.722H264.62C264.354 117.768 263.869 118.71 263.165 119.547C262.48 120.383 261.615 121.04 260.569 121.515C259.523 121.99 258.353 122.228 257.06 122.228C255.5 122.228 254.112 121.895 252.895 121.23C251.678 120.564 250.727 119.613 250.042 118.377C249.357 117.141 249.015 115.695 249.015 114.041C249.015 112.386 249.348 110.941 250.014 109.705C250.698 108.468 251.649 107.517 252.866 106.852C254.084 106.186 255.481 105.853 257.06 105.853C258.6 105.853 259.97 106.177 261.168 106.823C262.366 107.47 263.298 108.392 263.964 109.59C264.648 110.789 264.991 112.186 264.991 113.784ZM259.998 112.5C259.998 111.663 259.713 110.998 259.143 110.503C258.572 110.009 257.859 109.762 257.003 109.762C256.185 109.762 255.491 109.999 254.92 110.475C254.369 110.95 254.027 111.625 253.893 112.5H259.998ZM272.842 104.427C271.986 104.427 271.282 104.18 270.731 103.685C270.198 103.172 269.932 102.544 269.932 101.802C269.932 101.042 270.198 100.414 270.731 99.9195C271.282 99.406 271.986 99.1493 272.842 99.1493C273.679 99.1493 274.363 99.406 274.896 99.9195C275.447 100.414 275.723 101.042 275.723 101.802C275.723 102.544 275.447 103.172 274.896 103.685C274.363 104.18 273.679 104.427 272.842 104.427ZM275.295 124.054C275.295 126.013 274.801 127.42 273.812 128.276C272.823 129.151 271.444 129.588 269.675 129.588H267.764V125.452H268.934C269.466 125.452 269.846 125.347 270.075 125.138C270.303 124.929 270.417 124.587 270.417 124.111V106.082H275.295V124.054ZM280.685 114.012C280.685 112.377 280.99 110.941 281.598 109.705C282.226 108.468 283.072 107.517 284.137 106.852C285.202 106.186 286.391 105.853 287.703 105.853C288.825 105.853 289.805 106.082 290.642 106.538C291.497 106.994 292.154 107.593 292.61 108.335V106.082H297.488V122H292.61V119.746C292.135 120.488 291.469 121.087 290.613 121.544C289.776 122 288.797 122.228 287.675 122.228C286.381 122.228 285.202 121.895 284.137 121.23C283.072 120.545 282.226 119.585 281.598 118.348C280.99 117.093 280.685 115.648 280.685 114.012ZM292.61 114.041C292.61 112.824 292.268 111.863 291.583 111.159C290.917 110.456 290.1 110.104 289.13 110.104C288.16 110.104 287.332 110.456 286.648 111.159C285.982 111.844 285.649 112.795 285.649 114.012C285.649 115.229 285.982 116.199 286.648 116.922C287.332 117.626 288.16 117.978 289.13 117.978C290.1 117.978 290.917 117.626 291.583 116.922C292.268 116.218 292.61 115.258 292.61 114.041ZM311.798 114.041C311.798 112.386 312.131 110.941 312.797 109.705C313.482 108.468 314.423 107.517 315.621 106.852C316.838 106.186 318.227 105.853 319.786 105.853C321.783 105.853 323.447 106.376 324.779 107.422C326.129 108.468 327.013 109.942 327.432 111.844H322.24C321.802 110.627 320.956 110.018 319.701 110.018C318.807 110.018 318.094 110.37 317.561 111.074C317.029 111.759 316.762 112.748 316.762 114.041C316.762 115.334 317.029 116.332 317.561 117.036C318.094 117.721 318.807 118.063 319.701 118.063C320.956 118.063 321.802 117.455 322.24 116.237H327.432C327.013 118.101 326.129 119.566 324.779 120.631C323.428 121.696 321.764 122.228 319.786 122.228C318.227 122.228 316.838 121.895 315.621 121.23C314.423 120.564 313.482 119.613 312.797 118.377C312.131 117.141 311.798 115.695 311.798 114.041ZM340.14 122.228C338.58 122.228 337.173 121.895 335.918 121.23C334.682 120.564 333.702 119.613 332.979 118.377C332.276 117.141 331.924 115.695 331.924 114.041C331.924 112.405 332.285 110.969 333.008 109.733C333.731 108.478 334.72 107.517 335.975 106.852C337.23 106.186 338.637 105.853 340.197 105.853C341.756 105.853 343.164 106.186 344.419 106.852C345.674 107.517 346.663 108.478 347.386 109.733C348.109 110.969 348.47 112.405 348.47 114.041C348.47 115.676 348.099 117.122 347.357 118.377C346.635 119.613 345.636 120.564 344.362 121.23C343.107 121.895 341.699 122.228 340.14 122.228ZM340.14 118.006C341.072 118.006 341.861 117.664 342.508 116.979C343.173 116.294 343.506 115.315 343.506 114.041C343.506 112.767 343.183 111.787 342.536 111.102C341.909 110.418 341.129 110.075 340.197 110.075C339.246 110.075 338.457 110.418 337.829 111.102C337.201 111.768 336.888 112.748 336.888 114.041C336.888 115.315 337.192 116.294 337.801 116.979C338.428 117.664 339.208 118.006 340.14 118.006ZM374.222 105.91C376.2 105.91 377.769 106.509 378.93 107.708C380.109 108.906 380.698 110.57 380.698 112.7V122H375.849V113.356C375.849 112.329 375.573 111.54 375.021 110.988C374.489 110.418 373.747 110.132 372.796 110.132C371.845 110.132 371.094 110.418 370.542 110.988C370.01 111.54 369.744 112.329 369.744 113.356V122H364.894V113.356C364.894 112.329 364.618 111.54 364.067 110.988C363.534 110.418 362.792 110.132 361.841 110.132C360.891 110.132 360.139 110.418 359.588 110.988C359.055 111.54 358.789 112.329 358.789 113.356V122H353.911V106.082H358.789V108.078C359.283 107.413 359.93 106.89 360.729 106.509C361.528 106.11 362.431 105.91 363.439 105.91C364.637 105.91 365.702 106.167 366.634 106.681C367.585 107.194 368.327 107.926 368.859 108.877C369.411 108.002 370.162 107.289 371.113 106.738C372.064 106.186 373.1 105.91 374.222 105.91ZM391.841 108.335C392.316 107.593 392.973 106.994 393.809 106.538C394.646 106.082 395.626 105.853 396.748 105.853C398.06 105.853 399.249 106.186 400.314 106.852C401.379 107.517 402.216 108.468 402.824 109.705C403.452 110.941 403.766 112.377 403.766 114.012C403.766 115.648 403.452 117.093 402.824 118.348C402.216 119.585 401.379 120.545 400.314 121.23C399.249 121.895 398.06 122.228 396.748 122.228C395.645 122.228 394.665 122 393.809 121.544C392.973 121.087 392.316 120.498 391.841 119.775V129.588H386.963V106.082H391.841V108.335ZM398.802 114.012C398.802 112.795 398.459 111.844 397.775 111.159C397.109 110.456 396.282 110.104 395.293 110.104C394.323 110.104 393.496 110.456 392.811 111.159C392.145 111.863 391.812 112.824 391.812 114.041C391.812 115.258 392.145 116.218 392.811 116.922C393.496 117.626 394.323 117.978 395.293 117.978C396.263 117.978 397.09 117.626 397.775 116.922C398.459 116.199 398.802 115.229 398.802 114.012ZM408.208 114.012C408.208 112.377 408.512 110.941 409.121 109.705C409.748 108.468 410.595 107.517 411.66 106.852C412.725 106.186 413.913 105.853 415.226 105.853C416.348 105.853 417.327 106.082 418.164 106.538C419.02 106.994 419.676 107.593 420.132 108.335V106.082H425.011V122H420.132V119.746C419.657 120.488 418.991 121.087 418.135 121.544C417.299 122 416.319 122.228 415.197 122.228C413.904 122.228 412.725 121.895 411.66 121.23C410.595 120.545 409.748 119.585 409.121 118.348C408.512 117.093 408.208 115.648 408.208 114.012ZM420.132 114.041C420.132 112.824 419.79 111.863 419.105 111.159C418.44 110.456 417.622 110.104 416.652 110.104C415.682 110.104 414.855 110.456 414.17 111.159C413.504 111.844 413.172 112.795 413.172 114.012C413.172 115.229 413.504 116.199 414.17 116.922C414.855 117.626 415.682 117.978 416.652 117.978C417.622 117.978 418.44 117.626 419.105 116.922C419.79 116.218 420.132 115.258 420.132 114.041ZM436.271 108.735C436.841 107.86 437.554 107.175 438.41 106.681C439.266 106.167 440.217 105.91 441.263 105.91V111.074H439.922C438.705 111.074 437.792 111.34 437.184 111.873C436.575 112.386 436.271 113.299 436.271 114.611V122H431.392V106.082H436.271V108.735ZM445.478 114.012C445.478 112.377 445.782 110.941 446.39 109.705C447.018 108.468 447.864 107.517 448.929 106.852C449.994 106.186 451.183 105.853 452.495 105.853C453.617 105.853 454.597 106.082 455.434 106.538C456.29 106.994 456.946 107.593 457.402 108.335V106.082H462.28V122H457.402V119.746C456.927 120.488 456.261 121.087 455.405 121.544C454.568 122 453.589 122.228 452.467 122.228C451.174 122.228 449.994 121.895 448.929 121.23C447.864 120.545 447.018 119.585 446.39 118.348C445.782 117.093 445.478 115.648 445.478 114.012ZM457.402 114.041C457.402 112.824 457.06 111.863 456.375 111.159C455.71 110.456 454.892 110.104 453.922 110.104C452.952 110.104 452.125 110.456 451.44 111.159C450.774 111.844 450.441 112.795 450.441 114.012C450.441 115.229 450.774 116.199 451.44 116.922C452.125 117.626 452.952 117.978 453.922 117.978C454.892 117.978 455.71 117.626 456.375 116.922C457.06 116.218 457.402 115.258 457.402 114.041ZM473.541 108.735C474.111 107.86 474.824 107.175 475.68 106.681C476.536 106.167 477.487 105.91 478.533 105.91V111.074H477.192C475.975 111.074 475.062 111.34 474.454 111.873C473.845 112.386 473.541 113.299 473.541 114.611V122H468.662V106.082H473.541V108.735ZM486 122.228C485.144 122.228 484.44 121.981 483.889 121.487C483.356 120.973 483.09 120.345 483.09 119.604C483.09 118.843 483.356 118.206 483.889 117.692C484.44 117.179 485.144 116.922 486 116.922C486.836 116.922 487.521 117.179 488.054 117.692C488.605 118.206 488.881 118.843 488.881 119.604C488.881 120.345 488.605 120.973 488.054 121.487C487.521 121.981 486.836 122.228 486 122.228Z" fill="#00978C"/>
</svg>
